{"title":"Tomorrowland.2015.HDTS.x264-MenaceIISociety","uid":12154587,"size":1560053001,"categoryP":"video","categoryS":"movies","magnet":"?xt=urn:btih:d2fd716bad2bbfc18872310fa4b7a536482657d8&amp;dn=Tomorrowland.2015.HDTS.x264-MenaceIISociety&amp;tr=udp%3A%2F%2Ftracker.openbittorrent.com%3A80&amp;tr=udp%3A%2F%2Fopen.demonii.com%3A1337&amp;tr=udp%3A%2F%2Ftracker.coppersurfer.tk%3A6969&amp;tr=udp%3A%2F%2Fexodus.desync.com%3A6969","seeders":0,"leechers":0,"uploader":"TvTeam","files":4,"time":1437743894,"description":"------------------------------------------------------------------------\n\n &lt;a href=&quot; https://www.torrenting.com&quot; rel=&quot;nofollow&quot; target=&quot;_NEW&quot;&gt; https://www.torrenting.com&lt;/a&gt;\n\nSign up is OPEN - for time being. Come and have fun\n\n.......................................................................................................................[img]http://img911.imageshack.us/img911/1720/aFMpxR.jpg[/img]\n\nTomorrowland.2015.HDTS.x264-MenaceIISociety &lt;a href=&quot;\nhttp://www.imdb.com/title/tt1964418/&quot; rel=&quot;nofollow&quot; target=&quot;_NEW&quot;&gt;\nhttp://www.imdb.com/title/tt1964418/&lt;/a&gt;\n\nSource: 720p.HD-TS.X264.AC3.HQ.Hive-CM8 [THANKS]\n\n&gt;&gt;&gt; http://screenshotcomparison.com/comparison/132161\n\nGeneral\nComplete name                            : Tomorrowland.2015.HDTS.x264-MenaceIISociety.mp4\nFormat                                   : MPEG-4\nFormat profile                           : Base Media\nCodec ID                                 : isom\nFile size                                : 1.43 GiB\nDuration                                 : 2h 1mn\nOverall bit rate mode                    : Variable\nOverall bit rate                         : 1 686 Kbps\nEncoded date                             : UTC 2015-06-22 20:49:37\nTagged date                              : UTC 2015-06-22 20:49:37\n\nVideo\nID                                       : 1\nFormat                                   : AVC\nFormat/Info                              : Advanced Video Codec\nFormat profile                           : &lt;a class=&quot;__cf_email__&quot; href=&quot;/cdn-cgi/l/email-protection&quot; data-cfemail=&quot;1850717f7058542c3629&quot;&gt;[email&amp;#160;protected]&lt;/a&gt;&lt;script data-cfhash='f9e31' type=&quot;text/javascript&quot;&gt;\n/* &lt;![CDATA[ */!function(){try{var t=&quot;currentScript&quot;in document?document.currentScript:function(){for(var t=document.getElementsByTagName(&quot;script&quot;),e=t.length;e--;)if(t[e].getAttribute(&quot;data-cfhash&quot;))return t[e]}();if(t&amp;&amp;t.previousSibling){var e,r,n,i,c=t.previousSibling,a=c.getAttribute(&quot;data-cfemail&quot;);if(a){for(e=&quot;&quot;,r=parseInt(a.substr(0,2),16),n=2;a.length-n;n+=2)i=parseInt(a.substr(n,2),16)^r,e+=String.fromCharCode(i);e=document.createTextNode(e),c.parentNode.replaceChild(e,c)}t.parentNode.removeChild(t);}}catch(u){}}()/* ]]&gt; */&lt;/script&gt;\nFormat settings, CABAC                   : Yes\nFormat settings, ReFrames                : 3 frames\nCodec ID                                 : avc1\nCodec ID/Info                            : Advanced Video Coding\nDuration                                 : 2h 1mn\nBit rate mode                            : Variable\nBit rate                                 : 1 568 Kbps\nMaximum bit rate                         : 40.0 Mbps\nWidth                                    : 720 pixels\nHeight                                   : 384 pixels\nDisplay aspect ratio                     : 1.85:1\nFrame rate mode                          : Constant\nFrame rate                               : 29.970 fps\nColor space                              : YUV\nChroma subsampling                       : 4:2:0\nBit depth                                : 8 bits\nScan type                                : Progressive\nBits/(Pixel*Frame)                       : 0.189\nStream size                              : 1.33 GiB (93%)\nWriting library                          : x264 core 146 r2538 121396c\n\nAudio\nID                                       : 2\nFormat                                   : AAC\nFormat/Info                              : Advanced Audio Codec\nFormat profile                           : LC\nCodec ID                                 : 40\nDuration                                 : 2h 1mn\nBit rate mode                            : Variable\nBit rate                                 : 114 Kbps\nMaximum bit rate                         : 137 Kbps\nChannel count                            : 2 channels\nChannel positions                        : Front: L R\nSampling rate                            : 48.0 KHz\nCompression mode                         : Lossy\nStream size                              : 98.8 MiB (7%)\nEncoded date                             : UTC 2015-06-22 18:09:57\nTagged date                              : UTC 2015-06-22 20:51:25\n\n[img]http://s12.postimg.org/ipb8nexzx/vlcsnap_2015_06_22_23h28m36s828.png[/img] \n[img]http://s12.postimg.org/ojztv50v1/vlcsnap_2015_06_22_23h30m18s536.png[/img] \n[img]http://s12.postimg.org/4a2ifzzq5/vlcsnap_2015_06_22_23h30m27s356.png[/img] \n[img]http://s12.postimg.org/yssb0yowt/vlcsnap_2015_06_22_23h30m37s000.png[/img] \n[img]http://s12.postimg.org/4wwtrs78d/vlcsnap_2015_06_22_23h30m47s091.png[/img] \n[img]http://s12.postimg.org/60gy3qrvh/vlcsnap_2015_06_22_23h30m56s423.png[/img] \n[img]http://s12.postimg.org/5sxwkz6al/vlcsnap_2015_06_22_23h31m14s504.png[/img] \n[img]http://s12.postimg.org/z9dinecnx/vlcsnap_2015_06_22_23h31m59s213.png[/img] \n[img]http://s12.postimg.org/tmh5pxa59/vlcsnap_2015_06_22_23h35m56s982.png[/img] \n\n[img]http://s17.postimg.org/r1iiyw8yn/Untitled_1.png[/img]","torrent":{"xt":"urn:btih:d2fd716bad2bbfc18872310fa4b7a536482657d8","amp;dn":"Tomorrowland.2015.HDTS.x264-MenaceIISociety","amp;tr":["udp%3A%2F%2Ftracker.openbittorrent.com%3A80","udp%3A%2F%2Fopen.demonii.com%3A1337","udp%3A%2F%2Ftracker.coppersurfer.tk%3A6969","udp%3A%2F%2Fexodus.desync.com%3A6969"],"infoHash":"d2fd716bad2bbfc18872310fa4b7a536482657d8","infoHashBuffer":{"type":"Buffer","data":[210,253,113,107,173,43,191,193,136,114,49,15,164,183,165,54,72,38,87,216]},"announce":[],"urlList":[]}}